<svg id="Layer_1" data-name="Layer 1" xmlns="http://www.w3.org/2000/svg" viewBox="0 0 380 143"><defs><style>.cls-1{stroke:#000;stroke-miterlimit:10;}</style></defs><path class="cls-1" d="M76.76.5h84.48A23.26,23.26,0,0,1,184.5,23.76V93.5a0,0,0,0,1,0,0H53.5a0,0,0,0,1,0,0V23.76A23.26,23.26,0,0,1,76.76.5Z"/><rect class="cls-1" x="0.5" y="3.5" width="36" height="139" rx="18"/><rect class="cls-1" x="133.5" y="183" width="36" height="172" rx="18" transform="translate(355.5 -27) rotate(90)"/><rect x="93.5" y="119" width="185" height="24"/><path class="cls-1" d="M260.5,145h131a0,0,0,0,1,0,0v69.74A23.26,23.26,0,0,1,368.24,238H283.76a23.26,23.26,0,0,1-23.26-23.26V145A0,0,0,0,1,260.5,145Z" transform="translate(587 238.5) rotate(-180)"/><rect class="cls-1" x="408.5" y="148" width="36" height="139" rx="18" transform="translate(788 290.5) rotate(-180)"/><rect class="cls-1" x="340.5" y="183" width="36" height="172" rx="18" transform="translate(562.5 -234) rotate(90)"/></svg>