<svg width="19" height="8" viewBox="0 0 19 8" fill="none" xmlns="http://www.w3.org/2000/svg">
<path d="M2.81623 1.71887C2.81446 1.32744 3.13033 1.00869 3.52176 1.00692L8.07325 0.986262C8.46467 0.984485 8.78342 1.30036 8.7852 1.69178L8.80026 5.01035C8.80085 5.14082 8.69556 5.24707 8.56509 5.24766L3.06861 5.27261C2.93814 5.2732 2.83189 5.16791 2.83129 5.03743L2.81623 1.71887Z" fill="#9C27B0"/>
<path d="M9.63797 1.68798C9.63619 1.29656 9.95206 0.977808 10.3435 0.976032L14.895 0.955378C15.2864 0.953601 15.6052 1.26947 15.6069 1.6609L15.622 4.97946C15.6226 5.10994 15.5173 5.21619 15.3868 5.21678L9.89034 5.24172C9.75987 5.24232 9.65362 5.13702 9.65303 5.00655L9.63797 1.68798Z" fill="#9C27B0"/>
<path fill-rule="evenodd" clip-rule="evenodd" d="M10.5146 7.51072C10.4581 7.52067 10.3999 7.52599 10.3406 7.52625L1.46586 7.56653C0.813482 7.56949 0.282228 7.04303 0.279268 6.39066L0.260918 2.3471C0.259734 2.08615 0.470316 1.87365 0.731265 1.87247L1.49177 1.86901C1.75272 1.86783 1.96522 2.07841 1.96641 2.33936L1.98021 5.38247C1.9814 5.64342 2.1939 5.854 2.45485 5.85282L6.96109 5.83237C7.03716 5.83203 7.0991 5.89341 7.09945 5.96947C7.09979 6.04554 7.16173 6.10692 7.2378 6.10657L10.0582 6.09378C10.0612 6.0937 10.0643 6.09365 10.0673 6.09364L11.2254 6.08838C11.3015 6.08804 11.3629 6.02609 11.3625 5.95003C11.3622 5.87397 11.4235 5.81202 11.4996 5.81168L16.0059 5.79123C16.2668 5.79005 16.4774 5.57754 16.4762 5.31659L16.4624 2.27348C16.4612 2.01253 16.6718 1.80003 16.9327 1.79885L17.6932 1.7954C17.9542 1.79421 18.1667 2.00479 18.1679 2.26574L18.1862 6.3093C18.1892 6.96168 17.6627 7.49293 17.0104 7.49589L10.6882 7.52458C10.6291 7.52485 10.5711 7.52009 10.5146 7.51072Z" fill="#9C27B0"/>
<path d="M2.81623 1.71887C2.81446 1.32744 3.13033 1.00869 3.52176 1.00692L8.07325 0.986262C8.46467 0.984485 8.78342 1.30036 8.7852 1.69178L8.80026 5.01035C8.80085 5.14082 8.69556 5.24707 8.56509 5.24766L3.06861 5.27261C2.93814 5.2732 2.83189 5.16791 2.83129 5.03743L2.81623 1.71887Z" fill="#9C27B0"/>
<path d="M9.63797 1.68798C9.63619 1.29656 9.95206 0.977808 10.3435 0.976032L14.895 0.955378C15.2864 0.953601 15.6052 1.26947 15.6069 1.6609L15.622 4.97946C15.6226 5.10994 15.5173 5.21619 15.3868 5.21678L9.89034 5.24172C9.75987 5.24232 9.65362 5.13702 9.65303 5.00655L9.63797 1.68798Z" fill="#9C27B0"/>
<path fill-rule="evenodd" clip-rule="evenodd" d="M10.5146 7.51072C10.4581 7.52067 10.3999 7.52599 10.3406 7.52625L1.46586 7.56653C0.813482 7.56949 0.282228 7.04303 0.279268 6.39066L0.260918 2.3471C0.259734 2.08615 0.470316 1.87365 0.731265 1.87247L1.49177 1.86901C1.75272 1.86783 1.96522 2.07841 1.96641 2.33936L1.98021 5.38247C1.9814 5.64342 2.1939 5.854 2.45485 5.85282L6.96109 5.83237C7.03716 5.83203 7.0991 5.89341 7.09945 5.96947C7.09979 6.04554 7.16173 6.10692 7.2378 6.10657L10.0582 6.09378C10.0612 6.0937 10.0643 6.09365 10.0673 6.09364L11.2254 6.08838C11.3015 6.08804 11.3629 6.02609 11.3625 5.95003C11.3622 5.87397 11.4235 5.81202 11.4996 5.81168L16.0059 5.79123C16.2668 5.79005 16.4774 5.57754 16.4762 5.31659L16.4624 2.27348C16.4612 2.01253 16.6718 1.80003 16.9327 1.79885L17.6932 1.7954C17.9542 1.79421 18.1667 2.00479 18.1679 2.26574L18.1862 6.3093C18.1892 6.96168 17.6627 7.49293 17.0104 7.49589L10.6882 7.52458C10.6291 7.52485 10.5711 7.52009 10.5146 7.51072Z" fill="#9C27B0"/>
</svg>
