<svg width="10" height="7" viewBox="0 0 10 7" fill="none" xmlns="http://www.w3.org/2000/svg">
<path d="M0.525232 1.43209C0.525488 1.17114 0.737239 0.959802 0.998191 0.960058L1.7624 0.960808C2.02335 0.961064 2.23469 1.17281 2.23443 1.43377L2.23145 4.47691C2.23119 4.73786 2.44253 4.94961 2.70348 4.94987L6.88609 4.95397C7.14704 4.95423 7.35879 4.74289 7.35905 4.48194L7.36203 1.4388C7.36229 1.17784 7.57404 0.966508 7.83499 0.966763L8.5992 0.967513C8.86015 0.967769 9.07149 1.17952 9.07123 1.44047L9.06727 5.48407C9.06663 6.13645 8.53725 6.66479 7.88487 6.66415L1.70135 6.65809C1.04897 6.65745 0.520627 6.12807 0.521267 5.47569L0.525232 1.43209Z" fill="#E7B22E"/>
<path d="M2.51691 0.815555C2.5173 0.424127 2.83492 0.107123 3.22635 0.107507L6.36673 0.110587C6.75816 0.110971 7.07516 0.428597 7.07478 0.820025L7.07152 4.14803C7.07139 4.27851 6.96551 4.38418 6.83504 4.38405L2.74967 4.38004C2.61919 4.37992 2.51352 4.27404 2.51365 4.14356L2.51691 0.815555Z" fill="#E7B22E"/>
</svg>
